[IMG]http://img577.imageshack.us/img577/6545/themuppets.jpg[/IMG]
[code]
The Muppets 2011 DVDSCR XViD AC3-26K

Imdb: 
http://www.imdb.com/title/tt1204342/

Plot:
With the help of three fans, The Muppets must reunite to save their old theater from a greedy oil tycoon.

Sources:
THNXS SIC!!!

Notes:
ADDED A FEW FILTERS TO THE VIDEO TO MAKE IT LOOK NICE!! SO ENJOY!

Greetz:
Xtreme Encode|FYA|ILLUMANTI|CM8|RX|VISION|HDSCENE|NIGHTMAREZ|xTriLL|DTRG|CRYS|REMIXHD|BIDA|RX|REFILL|INSPiRAL|SIC|ZOMBIESZ|HOPE|Anonymous|GooN
To all the people who have helped me :P you know who you are

Anything to offer email us @: 26k@hushmail.me

Video
ID                                       : 0
Format                                   : MPEG-4 Visual
Format profile                           : Advanced Simple@L5
Format settings, BVOP                    : 1
Format settings, QPel                    : No
Format settings, GMC                     : No warppoints
Format settings, Matrix                  : Custom
Codec ID                                 : XVID
Codec ID/Hint                            : XviD
Duration                                 : 1h 42mn
Bit rate                                 : 2 168 Kbps
Width                                    : 720 pixels
Height                                   : 416 pixels
Display aspect ratio                     : 16:9
Frame rate                               : 29.970 fps
Color space                              : YUV
Chroma subsampling                       : 4:2:0
Bit depth                                : 8 bits
Scan type                                : Progressive
Compression mode                         : Lossy
Bits/(Pixel*Frame)                       : 0.241
Stream size                              : 1.56 GiB (83%)
Writing library                          : XviD 64

Audio
ID                                       : 1
Format                                   : AC-3
Format/Info                              : Audio Coding 3
Mode extension                           : CM (complete main)
Codec ID                                 : 2000
Duration                                 : 1h 42mn
Bit rate mode                            : Constant
Bit rate                                 : 448 Kbps
Channel(s)                               : 2 channels
Channel positions                        : Front: L R
Sampling rate                            : 44.1 KHz
Bit depth                                : 16 bits
Compression mode                         : Lossy
Stream size                              : 329 MiB (17%)
Alignment                                : Aligned on interleaves
Interleave, duration                     : 70 ms (2.09 video frames)
Interleave, preload duration             : 209 ms

[/code]
Screens:
[IMG]http://i.imgur.com/VQ9gS.png[/IMG]
[IMG]http://i.imgur.com/csLRB.png[/IMG]
[IMG]http://i.imgur.com/mhhQg.png[/IMG]
[IMG]http://img24.imageshack.us/img24/5017/vlcsnap2012021822h12m53.png[/IMG]
[IMG]http://img694.imageshack.us/img694/2121/vlcsnap2012021822h12m20.png[/IMG]
[IMG]http://img403.imageshack.us/img403/8374/vlcsnap2012021822h12m46.png[/IMG]

[img]http://img851.imageshack.us/img851/5503/26ks.jpg[/img]
Thank you smallz for banner!